# xmcd
#
# Track frame offsets:
#	150
#	20318
#	49287
#	84862
#	98057
#	119287
#	129800
#	150434
#	169012
#	179551
#	192969
#	207169
#	224551
#	237778
#	248298
#	259886
#	273290
#	285721
#	305821
#	315564
#
# Disc length: 4398 seconds
#
# Revision: 1
# Processed by: cddbd v1.5.1PL0 Copyright (c) Steve Scherf et al.
# Submitted via: audiograbber 1.82.01
#
DISCID=0e112c14
DTITLE=Various Artist - Blues Guitar Heroes - Vol 3
DYEAR=2000
DGENRE=Blues
TTITLE0=Buddy Guy and Junior Wells - Every Day I Have The Blues
TTITLE1=Muddy Waters - Howlin' Wolf
TTITLE2=Santana - Evil Ways
TTITLE3=Muddy Waters - I Got My Mojo Working
TTITLE4=Lightnin' Hopkins - Don't Wake Me
TTITLE5=John Lee Hooker - Want Ad Blues
TTITLE6=Buddy Guy - Buddy's Blues
TTITLE7=Santana - With A Little Help From My Friends
TTITLE8=Bo Diddley - I Don't Know Where I Been
TTITLE9=T-Bone Walker - T-Bone Shuffle
TTITLE10=Leadbelly - Easy Rider
TTITLE11=Lightnin' Hopkins - California Landslide
TTITLE12=Robert Johnson - I Believe I'll Dust My Broom
TTITLE13=Johm Lee Hooker - Keep Your Hands To Yourself
TTITLE14=Buddy Guy and Junior Wells - Messin' With The Kid
TTITLE15=Blind Blake - Rope Stretching Blues
TTITLE16=Bukka White - Fixing To Die Blues
TTITLE17=Lightnin' Hopkins - You Treat Po' Lightnin' Wrong
TTITLE18=John Lee Hooker - Dusty Road
TTITLE19=T-Bone Walker - Born To Be No Good
EXTD=Disc 3 of 3
EXTT0=
EXTT1=
EXTT2=
EXTT3=
EXTT4=
EXTT5=
EXTT6=
EXTT7=
EXTT8=
EXTT9=
EXTT10=
EXTT11=
EXTT12=
EXTT13=
EXTT14=
EXTT15=
EXTT16=
EXTT17=
EXTT18=
EXTT19=
PLAYORDER=
